HIERARCHY
ROOT Hips
{
  OFFSET -3.78466 98.3962 -1.17642
  CHANNELS 6 Xposition Yposition Zposition Zrotation Xrotation Yrotation
  JOINT Spine
  {
    OFFSET 0 10.1816 0.1315
    CHANNELS 6 Xposition Yposition Zposition Zrotation Xrotation Yrotation
    JOINT Spine1
    {
      OFFSET 0 10.0835 -1.0008
      CHANNELS 6 Xposition Yposition Zposition Zrotation Xrotation Yrotation
      JOINT Spine2
      {
        OFFSET 0 9.1 -1.3734
        CHANNELS 6 Xposition Yposition Zposition Zrotation Xrotation Yrotation
        JOINT Neck
        {
          OFFSET 0 16.6717 -2.5162
          CHANNELS 6 Xposition Yposition Zposition Zrotation Xrotation Yrotation
          JOINT Head
          {
            OFFSET 0 9.6179 1.685
            CHANNELS 6 Xposition Yposition Zposition Zrotation Xrotation Yrotation
            JOINT HeadTop_End
            {
              OFFSET 0 17.8152 2.585
              CHANNELS 6 Xposition Yposition Zposition Zrotation Xrotation Yrotation
              End Site
              {
                OFFSET 0 0 0
              }
            }
            JOINT LeftEye
            {
              OFFSET 3.0676 6.4095 9.2836
              CHANNELS 6 Xposition Yposition Zposition Zrotation Xrotation Yrotation
              End Site
              {
                OFFSET 0 0 0
              }
            }
            JOINT RightEye
            {
              OFFSET -3.0676 6.4095 9.2835
              CHANNELS 6 Xposition Yposition Zposition Zrotation Xrotation Yrotation
              End Site
              {
                OFFSET 0 0 0
              }
            }
          }
        }
        JOINT LeftShoulder
        {
          OFFSET 4.5704 10.946 -2.628
          CHANNELS 6 Xposition Yposition Zposition Zrotation Xrotation Yrotation
          JOINT LeftArm
          {
            OFFSET 10.5924 -0.5246 -2.2321
            CHANNELS 6 Xposition Yposition Zposition Zrotation Xrotation Yrotation
            JOINT LeftForeArm
            {
              OFFSET 27.8415 -0.0001 0
              CHANNELS 6 Xposition Yposition Zposition Zrotation Xrotation Yrotation
              JOINT LeftHand
              {
                OFFSET 28.3288 0 0
                CHANNELS 6 Xposition Yposition Zposition Zrotation Xrotation Yrotation
                JOINT LeftHandThumb1
                {
                  OFFSET 2.4661 -1.575 2.6824
                  CHANNELS 6 Xposition Yposition Zposition Zrotation Xrotation Yrotation
                  JOINT LeftHandThumb2
                  {
                    OFFSET 3.2298 -1.8647 1.8647
                    CHANNELS 6 Xposition Yposition Zposition Zrotation Xrotation Yrotation
                    JOINT LeftHandThumb3
                    {
                      OFFSET 2.6526 -1.5315 1.5315
                      CHANNELS 6 Xposition Yposition Zposition Zrotation Xrotation Yrotation
                      End Site
                      {
                        OFFSET 1.9546 -1.1285 1.1285
                      }
                    }
                  }
                }
                JOINT LeftHandIndex1
                {
                  OFFSET 9.1093 -0.5171 2.2601
                  CHANNELS 6 Xposition Yposition Zposition Zrotation Xrotation Yrotation
                  JOINT LeftHandIndex2
                  {
                    OFFSET 3.6764 0 0
                    CHANNELS 6 Xposition Yposition Zposition Zrotation Xrotation Yrotation
                    JOINT LeftHandIndex3
                    {
                      OFFSET 2.8831 0 0
                      CHANNELS 6 Xposition Yposition Zposition Zrotation Xrotation Yrotation
                      End Site
                      {
                        OFFSET 2.3927 0 0
                      }
                    }
                  }
                }
                JOINT LeftHandMiddle1
                {
                  OFFSET 9.5334 0 0
                  CHANNELS 6 Xposition Yposition Zposition Zrotation Xrotation Yrotation
                  JOINT LeftHandMiddle2
                  {
                    OFFSET 3.6982 0 0
                    CHANNELS 6 Xposition Yposition Zposition Zrotation Xrotation Yrotation
                    JOINT LeftHandMiddle3
                    {
                      OFFSET 2.9509 0 0
                      CHANNELS 6 Xposition Yposition Zposition Zrotation Xrotation Yrotation
                      End Site
                      {
                        OFFSET 2.8339 0 0
                      }
                    }
                  }
                }
                JOINT LeftHandRing1
                {
                  OFFSET 9.1045 -0.0439 -1.8651
                  CHANNELS 6 Xposition Yposition Zposition Zrotation Xrotation Yrotation
                  JOINT LeftHandRing2
                  {
                    OFFSET 3.154 0 0
                    CHANNELS 6 Xposition Yposition Zposition Zrotation Xrotation Yrotation
                    JOINT LeftHandRing3
                    {
                      OFFSET 2.9377 0 0
                      CHANNELS 6 Xposition Yposition Zposition Zrotation Xrotation Yrotation
                      End Site
                      {
                        OFFSET 2.6475 0 0
                      }
                    }
                  }
                }
                JOINT LeftHandPinky1
                {
                  OFFSET 8.0778 -0.4887 -3.8061
                  CHANNELS 6 Xposition Yposition Zposition Zrotation Xrotation Yrotation
                  JOINT LeftHandPinky2
                  {
                    OFFSET 3.6 0 0
                    CHANNELS 6 Xposition Yposition Zposition Zrotation Xrotation Yrotation
                    JOINT LeftHandPinky3
                    {
                      OFFSET 2.1142 0 0
                      CHANNELS 6 Xposition Yposition Zposition Zrotation Xrotation Yrotation
                      End Site
                      {
                        OFFSET 1.9757 0 0
                      }
                    }
                  }
                }
              }
            }
          }
        }
        JOINT RightShoulder
        {
          OFFSET -4.57 10.9462 -2.628
          CHANNELS 6 Xposition Yposition Zposition Zrotation Xrotation Yrotation
          JOINT RightArm
          {
            OFFSET -10.5928 -0.5248 -2.2321
            CHANNELS 6 Xposition Yposition Zposition Zrotation Xrotation Yrotation
            JOINT RightForeArm
            {
              OFFSET -27.8415 0 0
              CHANNELS 6 Xposition Yposition Zposition Zrotation Xrotation Yrotation
              JOINT RightHand
              {
                OFFSET -28.3288 0 0.0001
                CHANNELS 6 Xposition Yposition Zposition Zrotation Xrotation Yrotation
                JOINT RightHandPinky1
                {
                  OFFSET -8.0767 -0.4885 -3.806
                  CHANNELS 6 Xposition Yposition Zposition Zrotation Xrotation Yrotation
                  JOINT RightHandPinky2
                  {
                    OFFSET -3.6 0 0.0001
                    CHANNELS 6 Xposition Yposition Zposition Zrotation Xrotation Yrotation
                    JOINT RightHandPinky3
                    {
                      OFFSET -2.1142 0 0
                      CHANNELS 6 Xposition Yposition Zposition Zrotation Xrotation Yrotation
                      End Site
                      {
                        OFFSET -1.9757 0 0
                      }
                    }
                  }
                }
                JOINT RightHandRing1
                {
                  OFFSET -9.1036 -0.0439 -1.8651
                  CHANNELS 6 Xposition Yposition Zposition Zrotation Xrotation Yrotation
                  JOINT RightHandRing2
                  {
                    OFFSET -3.154 0 0
                    CHANNELS 6 Xposition Yposition Zposition Zrotation Xrotation Yrotation
                    JOINT RightHandRing3
                    {
                      OFFSET -2.9377 0 0
                      CHANNELS 6 Xposition Yposition Zposition Zrotation Xrotation Yrotation
                      End Site
                      {
                        OFFSET -2.6475 0 0
                      }
                    }
                  }
                }
                JOINT RightHandMiddle1
                {
                  OFFSET -9.5325 0 0
                  CHANNELS 6 Xposition Yposition Zposition Zrotation Xrotation Yrotation
                  JOINT RightHandMiddle2
                  {
                    OFFSET -3.6982 0 0
                    CHANNELS 6 Xposition Yposition Zposition Zrotation Xrotation Yrotation
                    JOINT RightHandMiddle3
                    {
                      OFFSET -2.9509 0 0
                      CHANNELS 6 Xposition Yposition Zposition Zrotation Xrotation Yrotation
                      End Site
                      {
                        OFFSET -2.8339 0 0.0001
                      }
                    }
                  }
                }
                JOINT RightHandIndex1
                {
                  OFFSET -9.1083 -0.5168 2.2601
                  CHANNELS 6 Xposition Yposition Zposition Zrotation Xrotation Yrotation
                  JOINT RightHandIndex2
                  {
                    OFFSET -3.6764 0 0
                    CHANNELS 6 Xposition Yposition Zposition Zrotation Xrotation Yrotation
                    JOINT RightHandIndex3
                    {
                      OFFSET -2.8831 0 0
                      CHANNELS 6 Xposition Yposition Zposition Zrotation Xrotation Yrotation
                      End Site
                      {
                        OFFSET -2.3927 0 0
                      }
                    }
                  }
                }
                JOINT RightHandThumb1
                {
                  OFFSET -2.4648 -1.5727 2.6826
                  CHANNELS 6 Xposition Yposition Zposition Zrotation Xrotation Yrotation
                  JOINT RightHandThumb2
                  {
                    OFFSET -3.2298 -1.8647 1.8647
                    CHANNELS 6 Xposition Yposition Zposition Zrotation Xrotation Yrotation
                    JOINT RightHandThumb3
                    {
                      OFFSET -2.6526 -1.5314 1.5314
                      CHANNELS 6 Xposition Yposition Zposition Zrotation Xrotation Yrotation
                      End Site
                      {
                        OFFSET -1.9546 -1.1285 1.1285
                      }
                    }
                  }
                }
              }
            }
          }
        }
      }
    }
  }
  JOINT LeftUpLeg
  {
    OFFSET 8.2078 -6.7517 -1.5996
    CHANNELS 6 Xposition Yposition Zposition Zrotation Xrotation Yrotation
    JOINT LeftLeg
    {
      OFFSET 0 -44.3705 0.2846
      CHANNELS 6 Xposition Yposition Zposition Zrotation Xrotation Yrotation
      JOINT LeftFoot
      {
        OFFSET 0 -44.4279 -2.9822
        CHANNELS 6 Xposition Yposition Zposition Zrotation Xrotation Yrotation
        JOINT LeftToeBase
        {
          OFFSET 0 -8.7287 10.7106
          CHANNELS 6 Xposition Yposition Zposition Zrotation Xrotation Yrotation
          End Site
          {
            OFFSET 0 -0.0007 9.2781
          }
        }
      }
    }
  }
  JOINT RightUpLeg
  {
    OFFSET -8.2078 -6.7517 -1.5996
    CHANNELS 6 Xposition Yposition Zposition Zrotation Xrotation Yrotation
    JOINT RightLeg
    {
      OFFSET 0 -44.3705 0.2862
      CHANNELS 6 Xposition Yposition Zposition Zrotation Xrotation Yrotation
      JOINT RightFoot
      {
        OFFSET 0 -44.4277 -2.9838
        CHANNELS 6 Xposition Yposition Zposition Zrotation Xrotation Yrotation
        JOINT RightToeBase
        {
          OFFSET 0 -8.7287 10.7106
          CHANNELS 6 Xposition Yposition Zposition Zrotation Xrotation Yrotation
          End Site
          {
            OFFSET 0 -0.0007 9.2781
          }
        }
      }
    }
  }
}
MOTION
Frames:	4
Frame Time:	0.0333333
-1.22283 99.429 -2.64065 -5.51976 -2.2135 -96.6666 4.44089e-016 10.1816 0.1315 -0.18978 4.98724 0.872161 0 10.0835 -1.0008 -0.434226 5.80228 1.86494 8.88178e-016 9.1 -1.3734 -0.373162 5.78646 1.92697 4.44089e-016 16.6717 -2.5162 -4.92966 0.65179 8.65572 0 9.6179 1.685 -2.36337 -4.88254 44.2772 -8.88178e-016 17.8152 2.585 7.95139e-016 -3.97569e-016 6.36111e-015 3.0676 6.4095 9.2836 7.95139e-016 -3.97569e-016 6.36111e-015 -3.0676 6.4095 9.2835 7.95139e-016 -3.97569e-016 6.36111e-015 4.5704 10.946 -2.628 23.3892 0.98777 16.5911 10.5924 -0.5246 -2.2321 -39.9661 -33.8731 -39.9212 27.8415 -0.0001 -1.42109e-014 -0.000211889 1.26053e-006 -2.34633 28.3288 -1.42109e-014 -2.13163e-014 2.92886 -49.2624 -6.15896 2.4661 -1.575 2.6824 -13.4991 7.30375 -0.465581 3.2298 -1.8647 1.8647 3.25521 3.0978 28.9849 2.6526 -1.5315 1.5315 25.3707 21.593 39.418 9.1093 -0.5171 2.2601 -68.4605 -5.88611 7.00224 3.6764 0 0 -88.1509 -5.66692 5.85249 2.8831 -1.77636e-015 -1.42109e-014 -71.3089 -3.97985 5.54573 9.5334 0 1.42109e-014 -64.7233 -5.47115 6.35388 3.6982 1.42109e-014 0 -94.3078 -6.29443 5.83897 2.9509 3.55271e-015 -2.84217e-014 -50.4866 -2.12927 4.51422 9.1045 -0.0439 -1.8651 -68.5618 -5.89712 5.55502 3.154 0 0 -99.8273 -6.85224 5.76934 2.9377 0 2.84217e-014 -55.2303 -2.5159 4.80732 8.0778 -0.4887 -3.8061 -67.9416 -5.82532 4.4037 3.6 0 -2.84217e-014 -98.8692 -6.75598 5.78531 2.1142 -7.10543e-015 1.42109e-014 -50.4874 -2.12933 4.51428 -4.57 10.9462 -2.628 -23.8721 0.373306 -6.4916 -10.5928 -0.5248 -2.2321 26.7637 -30.0124 78.1221 -27.8415 0 0 -1.35469e-014 -2.56713e-015 111.461 -28.3288 0 0.0001 -18.46 -63.8225 -21.3501 -8.0767 -0.4885 -3.806 16.1249 -0.755976 -8.13357 -3.6 0 0.0001 68.2606 -2.92385 -4.31407 -2.1142 0 1.42109e-014 47.039 -1.47925 -3.39808 -9.1036 -0.0439 -1.8651 32.4738 -1.88715 -10.5698 -3.154 -1.42109e-014 0 73.1979 -3.30324 -4.447 -2.9377 0 -1.42109e-014 42.7876 -1.23585 -3.15389 -9.5325 0 0 21.1989 -1.05656 -11.3026 -3.6982 0 0 64.9118 -2.67603 -4.20658 -2.9509 0 1.42109e-014 45.4381 -1.38548 -3.31028 -9.1083 -0.5168 2.2601 33.5728 -1.99737 -6.21274 -3.6764 -1.42109e-014 0 41.0127 -1.13973 -3.04673 -2.8831 0 1.42109e-014 49.3162 -1.61688 -3.5213 -2.4648 -1.5727 2.6826 -5.23811 -5.31187 -3.76717 -3.2298 -1.8647 1.8647 6.49992 20.1551 -32.6638 -2.6526 -1.5314 1.5314 -19.5657 -6.59517 -16.532 8.2078 -6.7517 -1.5996 10.4262 0.770083 14.5211 -3.55271e-015 -44.3705 0.2846 0.603826 22.5434 -2.51206 -3.55271e-015 -44.4279 -2.9822 -11.9931 -14.9248 -0.869968 0 -8.7287 10.7106 -0.0291497 -0.0168344 -3.31663e-005 -8.2078 -6.7517 -1.5996 -9.25974 -8.94648 -6.04972 3.55271e-015 -44.3705 0.2862 -9.11331 30.7784 14.3769 0 -44.4277 -2.9838 9.68616 -17.8953 1.70109 0 -8.7287 10.7106 -2.35964e-006 -0.795092 1.10736e-005 
-1.3832 99.3158 -2.64779 -5.27507 -2.23425 -97.9562 4.44089e-016 10.1816 0.1315 -0.00395488 4.97298 0.90033 0 10.0835 -1.0008 -0.191357 5.61111 1.91991 0 9.1 -1.3734 -0.125375 5.59199 1.98017 -4.44089e-016 16.6717 -2.5162 -4.95448 0.37312 8.79636 0 9.6179 1.685 -3.2889 -6.00423 46.8143 8.88178e-016 17.8152 2.585 -3.97569e-016 0 3.18055e-015 3.0676 6.4095 9.2836 -3.97569e-016 0 3.18055e-015 -3.0676 6.4095 9.2835 -3.97569e-016 0 3.18055e-015 4.5704 10.946 -2.628 22.5939 0.872268 17.3114 10.5924 -0.5246 -2.2321 -40.3707 -33.9625 -38.0597 27.8415 -0.0001 0 -0.000201402 -6.73086e-006 -4.85045 28.3288 0 7.10543e-015 5.78235 -49.9219 -4.57493 2.4661 -1.575 2.6824 -13.4991 7.30375 -0.465581 3.2298 -1.8647 1.8647 3.25521 3.0978 28.9849 2.6526 -1.5315 1.5315 25.3707 21.593 39.418 9.1093 -0.5171 2.2601 -68.4605 -5.88611 7.00224 3.6764 0 0 -88.1509 -5.66692 5.85249 2.8831 5.32907e-015 0 -71.3089 -3.97985 5.54573 9.5334 0 1.42109e-014 -64.7233 -5.47115 6.35388 3.6982 2.84217e-014 0 -94.3078 -6.29443 5.83897 2.9509 -1.77636e-015 0 -50.4866 -2.12927 4.51422 9.1045 -0.0439 -1.8651 -68.5618 -5.89712 5.55502 3.154 0 2.84217e-014 -99.8273 -6.85224 5.76934 2.9377 -3.55271e-015 1.42109e-014 -55.2303 -2.5159 4.80732 8.0778 -0.4887 -3.8061 -67.9416 -5.82532 4.4037 3.6 0 0 -98.8692 -6.75598 5.78531 2.1142 -7.10543e-015 -1.42109e-014 -50.4874 -2.12933 4.51428 -4.57 10.9462 -2.628 -23.1846 0.346042 -6.44257 -10.5928 -0.5248 -2.2321 25.9538 -31.4962 75.5934 -27.8415 0 -3.55271e-015 -1.39956e-005 -6.07903e-006 113.478 -28.3288 0 0.0001 -15.3185 -63.6995 -18.0212 -8.0767 -0.4885 -3.806 16.1249 -0.755973 -8.1336 -3.6 0 0.0001 68.2606 -2.92382 -4.31405 -2.1142 0 -1.42109e-014 47.0391 -1.47926 -3.39809 -9.1036 -0.0439 -1.8651 32.4737 -1.88713 -10.5698 -3.154 0 0 73.1979 -3.30321 -4.44698 -2.9377 0 -1.42109e-014 42.7876 -1.23586 -3.15389 -9.5325 0 -1.42109e-014 21.1989 -1.05657 -11.3027 -3.6982 -1.42109e-014 -1.42109e-014 64.9118 -2.67604 -4.20658 -2.9509 0 0 45.4381 -1.38547 -3.31028 -9.1083 -0.5168 2.2601 33.5728 -1.99736 -6.21274 -3.6764 1.42109e-014 0 41.0127 -1.13974 -3.04675 -2.8831 0 1.42109e-014 49.3162 -1.61688 -3.52129 -2.4648 -1.5727 2.6826 -5.23812 -5.31185 -3.76719 -3.2298 -1.8647 1.8647 6.49991 20.1551 -32.6638 -2.6526 -1.5314 1.5314 -19.5657 -6.59518 -16.532 8.2078 -6.7517 -1.5996 10.2383 0.795053 14.4692 -3.55271e-015 -44.3705 0.2846 0.466727 22.8294 -1.12624 3.55271e-015 -44.4279 -2.9822 -12.2528 -15.2754 -0.942218 0 -8.7287 10.7106 -0.0168613 -0.0134586 2.02277e-005 -8.2078 -6.7517 -1.5996 -9.18063 -9.70033 -5.64335 0 -44.3705 0.2862 -9.5637 31.1791 14.5887 0 -44.4277 -2.9838 9.89739 -17.9523 2.56396 0 -8.7287 10.7106 -9.71697e-007 -0.857062 2.02055e-005 
-1.48205 99.147 -2.70243 -5.21028 -2.1471 -99.2561 -4.44089e-016 10.1816 0.1315 0.0939255 5.08 0.96715 1.33227e-015 10.0835 -1.0008 -0.0881163 5.57247 2.06679 -8.88178e-016 9.1 -1.3734 -0.0124742 5.54946 2.12916 8.88178e-016 16.6717 -2.5162 -4.75822 0.26887 8.88175 0 9.6179 1.685 -4.04983 -7.40808 49.2174 0 17.8152 2.585 -3.97569e-016 1.19271e-015 -3.18055e-015 3.0676 6.4095 9.2836 -3.97569e-016 1.19271e-015 -3.18055e-015 -3.0676 6.4095 9.2835 -3.97569e-016 1.19271e-015 -3.18055e-015 4.5704 10.946 -2.628 22.9127 0.873871 17.9912 10.5924 -0.5246 -2.2321 -42.2025 -34.4006 -36.1726 27.8415 -0.0001 0 -0.000210798 -2.66869e-006 -7.29205 28.3288 -1.42109e-014 0 7.33796 -50.4137 -4.25314 2.4661 -1.575 2.6824 -13.4991 7.30375 -0.465581 3.2298 -1.8647 1.8647 3.25521 3.0978 28.9849 2.6526 -1.5315 1.5315 25.3707 21.593 39.418 9.1093 -0.5171 2.2601 -68.4605 -5.88611 7.00224 3.6764 0 0 -88.1509 -5.66692 5.85249 2.8831 0 -2.84217e-014 -71.3089 -3.97985 5.54573 9.5334 0 1.42109e-014 -64.7233 -5.47115 6.35388 3.6982 -1.42109e-014 2.84217e-014 -94.3078 -6.29443 5.83897 2.9509 -8.88178e-016 0 -50.4866 -2.12927 4.51422 9.1045 -0.0439 -1.8651 -68.5618 -5.89712 5.55502 3.154 0 2.84217e-014 -99.8273 -6.85224 5.76934 2.9377 3.55271e-015 -1.42109e-014 -55.2303 -2.5159 4.80732 8.0778 -0.4887 -3.8061 -67.9416 -5.82532 4.4037 3.6 -1.42109e-014 0 -98.8692 -6.75598 5.78531 2.1142 3.55271e-015 0 -50.4874 -2.12933 4.51428 -4.57 10.9462 -2.628 -22.1441 0.275211 -6.02268 -10.5928 -0.5248 -2.2321 24.8768 -32.95 72.2227 -27.8415 -2.84217e-014 -3.55271e-015 -1.52588e-005 3.01595e-015 115.456 -28.3288 0 0.0001 -11.5381 -63.3545 -14.0976 -8.0767 -0.4885 -3.806 16.1249 -0.755962 -8.13358 -3.6 0 0.0001 68.2606 -2.92383 -4.31406 -2.1142 0 1.42109e-014 47.0391 -1.47926 -3.39807 -9.1036 -0.0439 -1.8651 32.4738 -1.88714 -10.5698 -3.154 1.42109e-014 0 73.1979 -3.30323 -4.44696 -2.9377 0 7.10543e-015 42.7876 -1.23586 -3.15389 -9.5325 2.84217e-014 0 21.1989 -1.05656 -11.3026 -3.6982 1.42109e-014 0 64.9118 -2.67606 -4.20659 -2.9509 -3.55271e-015 0 45.4381 -1.38548 -3.31027 -9.1083 -0.5168 2.2601 33.5728 -1.99738 -6.21274 -3.6764 1.42109e-014 1.42109e-014 41.0127 -1.13974 -3.04676 -2.8831 7.10543e-015 0 49.3162 -1.61688 -3.52129 -2.4648 -1.5727 2.6826 -5.23812 -5.31186 -3.76719 -3.2298 -1.8647 1.8647 6.4999 20.1551 -32.6638 -2.6526 -1.5314 1.5314 -19.5657 -6.59517 -16.532 8.2078 -6.7517 -1.5996 10.2055 0.835512 14.4967 0 -44.3705 0.2846 0.413332 23.4359 0.042576 3.55271e-015 -44.4279 -2.9822 -12.5755 -15.7702 -1.04232 0 -8.7287 10.7106 -0.00962549 -0.0151118 -4.57638e-006 -8.2078 -6.7517 -1.5996 -9.05312 -10.4277 -5.28435 0 -44.3705 0.2862 -9.89812 31.8673 14.9697 3.55271e-015 -44.4277 -2.9838 9.984 -18.0948 3.26174 0 -8.7287 10.7106 -8.59867e-007 -0.905536 8.0947e-006 
-1.52628 98.9383 -2.79829 -5.26038 -2.01232 -100.415 -4.44089e-016 10.1816 0.1315 0.0729733 5.28319 1.05991 -4.44089e-016 10.0835 -1.0008 -0.154891 5.63457 2.27696 4.44089e-016 9.1 -1.3734 -0.0649048 5.60807 2.34482 1.77636e-015 16.6717 -2.5162 -4.36639 0.283279 8.87963 0 9.6179 1.685 -4.54688 -8.87202 51.2602 0 17.8152 2.585 3.97569e-016 0 6.36111e-015 3.0676 6.4095 9.2836 3.97569e-016 0 6.36111e-015 -3.0676 6.4095 9.2835 3.97569e-016 0 6.36111e-015 4.5704 10.946 -2.628 24.2589 1.04103 18.7626 10.5924 -0.5246 -2.2321 -45.2188 -34.8513 -34.6739 27.8415 -0.0001 -2.84217e-014 -0.000194616 9.42999e-006 -9.38681 28.3288 -1.42109e-014 0 8.41349 -50.5906 -4.66324 2.4661 -1.575 2.6824 -13.4991 7.30375 -0.465581 3.2298 -1.8647 1.8647 3.25521 3.0978 28.9849 2.6526 -1.5315 1.5315 25.3707 21.593 39.418 9.1093 -0.5171 2.2601 -68.4605 -5.88611 7.00224 3.6764 0 0 -88.1509 -5.66692 5.85249 2.8831 0 -1.42109e-014 -71.3089 -3.97985 5.54573 9.5334 0 2.84217e-014 -64.7233 -5.47115 6.35388 3.6982 0 0 -94.3078 -6.29443 5.83897 2.9509 8.88178e-016 -4.26326e-014 -50.4866 -2.12927 4.51422 9.1045 -0.0439 -1.8651 -68.5618 -5.89712 5.55502 3.154 1.42109e-014 0 -99.8273 -6.85224 5.76934 2.9377 -1.77636e-015 1.42109e-014 -55.2303 -2.5159 4.80732 8.0778 -0.4887 -3.8061 -67.9416 -5.82532 4.4037 3.6 1.42109e-014 -2.84217e-014 -98.8692 -6.75598 5.78531 2.1142 -1.77636e-015 1.42109e-014 -50.4874 -2.12933 4.51428 -4.57 10.9462 -2.628 -20.6368 0.184674 -5.39445 -10.5928 -0.5248 -2.2321 22.6924 -34.6498 67.3783 -27.8415 0 1.77636e-015 -1.35144e-005 -7.08456e-006 117.665 -28.3288 0 0.0001 -7.43093 -62.66 -9.73382 -8.0767 -0.4885 -3.806 16.1249 -0.75597 -8.13356 -3.6 0 0.0001 68.2606 -2.92385 -4.31407 -2.1142 -1.77636e-015 0 47.0391 -1.47925 -3.39808 -9.1036 -0.0439 -1.8651 32.4737 -1.88713 -10.5698 -3.154 0 1.42109e-014 73.1979 -3.30322 -4.44699 -2.9377 -7.10543e-015 0 42.7876 -1.23585 -3.15387 -9.5325 0 -1.42109e-014 21.1989 -1.05656 -11.3027 -3.6982 0 1.42109e-014 64.9118 -2.67609 -4.20659 -2.9509 1.77636e-015 0 45.4381 -1.38548 -3.31028 -9.1083 -0.5168 2.2601 33.5728 -1.99738 -6.21274 -3.6764 1.42109e-014 0 41.0128 -1.13976 -3.04674 -2.8831 0 -1.42109e-014 49.3162 -1.61688 -3.52131 -2.4648 -1.5727 2.6826 -5.23812 -5.31185 -3.7672 -3.2298 -1.8647 1.8647 6.49991 20.1552 -32.6638 -2.6526 -1.5314 1.5314 -19.5657 -6.59518 -16.532 8.2078 -6.7517 -1.5996 10.3048 0.840912 14.5356 -3.55271e-015 -44.3705 0.2846 0.34831 24.2663 1.03041 0 -44.4279 -2.9822 -12.9085 -16.3294 -1.15554 0 -8.7287 10.7106 -0.0141473 -0.0174082 -2.13697e-009 -8.2078 -6.7517 -1.5996 -8.8501 -11.1107 -4.92653 0 -44.3705 0.2862 -10.2204 32.7579 15.3317 0 -44.4277 -2.9838 9.88804 -18.3123 3.82418 0 -8.7287 10.7106 1.72132e-006 -0.909003 2.66809e-006 
